<?xml version="1.0" encoding="utf-8"?>
<!-- Generator: Adobe Illustrator 27.4.1, SVG Export Plug-In . SVG Version: 6.00 Build 0)  -->
<svg version="1.1" id="Layer_1" xmlns="http://www.w3.org/2000/svg" xmlns:xlink="http://www.w3.org/1999/xlink" x="0px" y="0px"
	 viewBox="0 0 1000 1000" style="enable-background:new 0 0 1000 1000;" xml:space="preserve">
<style type="text/css">
	.st0{fill-rule:evenodd;clip-rule:evenodd;fill:#005C2E;}
	.st1{fill-rule:evenodd;clip-rule:evenodd;fill:#FFED00;}
	.st2{fill:#FFED00;}
	.st3{fill:#575756;}
	.st4{fill:none;}
</style>
<path class="st0" d="M122.5,409.9h754.3c60.6,0,110.1,49.6,110.1,110.1c0,60.6-49.6,110.1-110.1,110.1H122.5
	c-60.6,0-110.1-49.6-110.1-110.1C12.4,459.4,61.9,409.9,122.5,409.9"/>
<path class="st1" d="M621.7,644.2L499.6,766.2L377.5,644.2h19.9l102.2,102.2l102.2-102.2H621.7z M499.6,273.7l122.1,122.1h-19.9
	L499.6,293.6L397.4,395.8h-19.9L499.6,273.7z"/>
<rect x="353.6" y="374" transform="matrix(0.7071 -0.7071 0.7071 0.7071 -221.3469 505.5805)" class="st0" width="292" height="292"/>
<path class="st0" d="M836.2,644.2C785.7,781,654,878.6,499.6,878.6c-154.4,0-286.1-97.6-336.6-234.5h123.2
	c42.8,73.4,122.3,122.7,213.4,122.7S670.2,717.5,713,644.2H836.2z M499.6,161.3c154.4,0,286.1,97.6,336.6,234.5H713
	c-42.8-73.4-122.3-122.7-213.4-122.7S329,322.4,286.2,395.8H163C213.6,258.9,345.2,161.3,499.6,161.3z"/>
<path class="st1" d="M308.4,477.3c3.9-3.9,8.1-7.7,12.3-10.7c12.8-9.6,27.6-13.6,43.5-13.6c14.9,0,28.8,3.8,41.4,11.6
	c11.5,7.1,20.4,16.6,26.6,28.6c5.7,10.8,8.4,22.4,8.4,34.5c0,19.9-6.7,37.2-20.4,51.6c-15.1,15.9-34,23.3-55.9,23.3h-34.4l-25.2-0.2
	c-2,0-4.1,0.1-6.1,0.2l-3.2,0.1l0.1-3.2c0.3-12.6,0.6-25.3,0.5-37.9l-0.3-68.4v-29.4l-0.4-19.3l-0.2-7h13.9v3
	c0,7.6-0.3,15.3-0.5,22.9C308.5,467.9,308.4,472.6,308.4,477.3 M308.3,494.4v62.2c0,11.7,0.6,23.5,1.3,35.1c7.1,0.9,14.9,1,21.8,1
	h32.7c11.7,0,23-2.3,33.1-8.3c9.7-5.8,17.2-13.7,22.4-23.8c4.9-9.4,7.1-19.4,7.1-30c0-10.9-2.5-21.3-7.2-31.1
	c-4.8-10.1-11.5-18.9-20.6-25.4c-10.9-7.8-23.1-11.3-36.5-11.3c-13.3,0-25.4,3.7-36.2,11.6C319.3,479.6,313.3,487.1,308.3,494.4z"/>
<path class="st1" d="M235.4,581.4c-3.2,2.9-6.5,5.8-9.9,8.1c-6.2,4.2-12.9,7.3-19.9,9.5c-7,2.2-14.3,3.5-21.7,3.5
	c-15.3,0-29.2-4.6-41.8-13.3c-17.3-11.9-26.3-28.2-26.3-49.2c0-20.4,8.2-36.9,24.3-49.3c13.7-10.6,29.5-15.5,46.7-15.5
	c9.3,0,18.4,1.4,27.1,4.8c7.2,2.8,14.2,6.9,20.6,11.5c-1.3-5.6-3.4-11.2-6.8-15.6c-3.6-4.7-8.1-8.2-13.8-10.1
	c-7.4-2.5-17.4-2.9-25.2-2.9c-15.8,0-32.2,1.9-47.9,4.3l-3.4,0.5v-14.5h36.3c7.4,0,14.9,0,22.3,0.2c4,0.1,8.1,0.1,12,0.4
	c5,0.4,9.8,1.8,14.3,3.9c8.1,3.7,15,9.3,19.3,17.2c5.7,10.4,6.8,25.1,6.8,36.8c0,5.9-0.1,11.8-0.2,17.7c-0.1,5.3-0.2,10.7-0.2,16
	c0,17.4,0.2,34.9,0.9,52.3l0.1,3.1h-14.7l0.3-3.2C235,592.1,235.2,586.7,235.4,581.4 M235.9,505.7c-0.4-0.4-0.9-0.7-1.3-1.1
	l-0.1-0.1l-0.1-0.1c-5.3-4.4-11.3-9.2-17.4-12.4c-9.5-5-19.6-7.4-30.4-7.4c-9.9,0-19.4,2-28.3,6.4c-10.8,5.3-18.6,13.4-23.5,24.4
	c-3.2,7.3-4.6,15-4.6,22.9c0,16.6,5.8,30.3,18.6,41c10.6,8.8,22.8,13.3,36.6,13.3c12.8,0,24.5-3.8,34.9-11.3
	c5.6-4.1,11.1-10,15.6-15.4c0.1-2.4,0.3-4.8,0.3-7.1l-0.4-27.1V505.7z"/>
<path class="st1" d="M778.6,574c-4.2,8.2-10.2,14.9-18.4,19.8c-9.2,5.6-19.1,8.6-29.8,8.6c-14,0-26.6-4.2-37.3-13.4
	c-10.6-9.1-16.1-20.9-17-34.8c-0.7-10.1-0.7-20.6-0.9-30.7c-0.4-22.1-0.7-44.2-1-66.2l0-3h14.3l0,5.7c-0.4,22.5-0.8,45-0.8,67.4
	c0,10.2,0.1,25,3.1,34.8c3.3,10.7,10,18.7,19.6,24.4c6.1,3.7,12.9,6.3,20.1,6.3c6.7,0,12.9-2.1,18.6-5.4c6.2-3.7,11.4-8.4,15.4-14.5
	c3.4-5.1,5.3-10.8,6.3-16.7c1.7-10,1.7-21.9,1.7-32.1c0-22.3-0.3-44.6-1-66.8l-0.1-3.1h14.5l0,6.7c-0.5,24.1-0.8,48.3-0.8,72.5
	c0,9.1,0.4,19.7,2.8,28.5c1.8,6.4,4.8,12,9.4,16.7c8.4,8.7,18.5,14.3,30.7,14.3c5.8,0,11.4-1.9,16.6-4.6c5.9-3.2,11-7.4,15.2-12.6
	c3.9-4.8,6.4-10.3,7.8-16.3c2-8.8,2.2-19.6,2.2-28.5c0-24.5,0-49.1-0.9-73.5l-0.1-3.1h14.7l-0.1,3.1c-1,21.8-1.1,43.8-1.1,65.6
	c0,8.8,0.1,17.8-0.4,26.6c-0.3,4.7-0.9,9.4-2,14c-3.6,15.3-13.1,26.1-27.1,33c-7.9,3.9-16.4,5.8-25.2,5.8c-11.7,0-22.5-3.2-32.2-9.7
	C788.1,587.8,782.4,581.6,778.6,574"/>
<path class="st1" d="M628,492.4h-16.2l-0.9-1.3c-12.3-17.7-28.7-28-50.6-28c-11.9,0-22.7,3.2-32.6,9.8c-18.2,12.2-27.1,29.1-27.1,51
	c0,14.6,3.9,28,11.9,40.2c5.2,7.8,11.7,14.3,19.5,19.4c7.6,4.8,15.8,7.8,24.8,8.9c4.6,0.5,9.4,0.6,14,0.6c16.7,0,33.3-1.8,49.7-4.9
	l3.5-0.7v14.7l-2.9,0c-3.4,0-6.7,0-10.1,0c-3.8,0-7.6,0-11.4,0c-3.9,0-7.8,0-11.7,0l-25,0.2c-13.7,0-26.9-3-38.8-10
	c-11.3-6.7-20.5-15.6-27.2-26.9c-6.9-11.6-10.4-24.2-10.4-37.7c0-18.3,6-34.6,18-48.5c8.9-10.5,20.1-17.8,33.1-22.3
	c7.8-2.7,15.9-4.1,24.1-4.1c16.9,0,32.1,5.3,45.5,15.6c6.6,5,12.4,12.4,17.3,19.1L628,492.4z"/>
<g>
	<path class="st2" d="M512.6,257l-4.3-12.5l-25.1,0.2l-4.2,12.5l-14.4,0.1l25.2-70.8l10.8-0.1l26.3,70.5L512.6,257z M495.8,207.3
		l-8.8,25.8l17.6-0.1L495.8,207.3z"/>
</g>
<g>
	<path class="st2" d="M578.9,268l-28.3-8.4l20-67.7l27.2,8.1c13.2,3.9,18.7,13.6,15.3,25.2c-2.2,7.5-8.6,10.9-12.5,11.5
		c3.5,3.1,7.5,8.9,4.8,18C601.6,267.3,590.9,271.6,578.9,268z M586,239.2l-13.8-4.1l-4.9,16.6l13.8,4.1c6,1.8,10-1.2,11.3-5.8
		C593.7,245.5,591.9,241,586,239.2z M593.2,211.4l-12.9-3.8l-4.6,15.6l12.9,3.8c5.6,1.7,9.7-0.5,11.1-5.2S598.8,213.1,593.2,211.4z"
		/>
</g>
<g>
	<path class="st2" d="M429.1,265.9l-8.5-28.3l-22.9,6.9l8.5,28.3l-13.2,4l-20.3-67.6l13.2-4l8.3,27.6l22.9-6.9l-8.3-27.6l13.2-4
		l20.3,67.6L429.1,265.9z"/>
</g>
<g>
	<path class="st2" d="M625,287.4l37.3-60l39.5,24.5l-6.5,10.4l-27.8-17.3l-8.7,14.1l23.7,14.7l-6.5,10.4l-23.7-14.7l-9.1,14.6
		l27.8,17.3l-6.5,10.4L625,287.4z"/>
</g>
<g>
	<path class="st2" d="M348.4,305.5c-8.8,6.1-16.8,8.8-26.5,7l2.3-12.4c6.2,1.1,12-1.1,17.4-4.8c6.7-4.6,8.5-9.6,5.3-14.3
		c-1.4-2-3.2-3.4-5.2-3.7c-1.9-0.3-3.6,0.1-6.6,1.5l-7.7,3.9c-5.5,2.7-10.2,3.7-14.6,3c-4.7-0.9-8.7-3.7-12.1-8.6
		c-7.2-10.4-4.5-22.9,8.1-31.6c8-5.5,15.2-7.6,23.5-6.2l-2.3,12.1c-6.1-1-10.8,1.6-14.7,4.2c-6,4.2-6.7,9.5-3.9,13.5
		c1,1.5,2.6,2.7,4.6,3c1.9,0.3,4.4-0.1,7-1.4l7.5-3.8c5.8-2.9,10.2-3.8,14.2-3.2c5.1,0.8,9.5,4.1,13,9.2
		C365.5,284.3,360.5,297.1,348.4,305.5z"/>
</g>
<g>
	<path class="st2" d="M712.4,362.3l12.6-50l-31.7,29.6l-9.4-10.1l51.7-48.2l8.4,9l-12.6,50l31.6-29.5l9.4,10.1l-51.7,48.2
		L712.4,362.3z"/>
</g>
<g>
	<path class="st2" d="M305.3,341.9l-12.3-4.7l-15.9,19.4l7,11.2l-9.1,11.1l-38.4-64.6l6.8-8.4l71,24.8L305.3,341.9z M256.3,323.1
		l14.2,23.2l11.1-13.6L256.3,323.1z"/>
</g>
<path class="st2" d="M752.9,703.4l-8.2,10.3l-10.8-17.3L752.9,703.4z M777.5,701.7L724,683.7l-5.1,6.3l29.3,48.2l6.7-8.4l-5.3-8.4
	l11.8-14.7l9.3,3.4L777.5,701.7z M730,757l-6.1-6.9l-18,15.9l-28.9-32.8l-7.8,6.8l35,39.7L730,757z M656.4,790.2l-11.4,6.6l-3.8-20
	L656.4,790.2z M679.9,797.6l-43.2-36.3l-7,4l9.7,55.5l9.4-5.4l-1.9-9.7l16.3-9.4l7.4,6.6L679.9,797.6z M602.9,778.9l-10.4,3
	l1.3,34.4l-18.5-29.4l-7.4,2.1l-0.1,34.8l-17.1-29.9l-10.4,3l28.2,47l8.3-2.4l0.5-33.6l18.2,28.2l8.3-2.4L602.9,778.9z M524.8,849.6
	l-4-52.8l-10.3,0.8l4,52.8L524.8,849.6z M484.7,851.3l-14.5-34.1l20.2-18.6l-12.5-1.6l-21.5,20.4l3-22.9l-10.3-1.3l-6.9,52.5
	l10.3,1.3l2.1-15.8l7.9-7.2l10.4,25.7L484.7,851.3z M412.5,839.1l-7.5-36.3l23.4-14.3l-11.9-4.1l-25.1,15.8l7.5-21.8l-9.8-3.3
	L372,825.3l9.8,3.3l5.1-15.1l9.1-5.5l5.1,27.2L412.5,839.1z M339.5,809.2l26.3-46l-9-5.1l-26.3,46L339.5,809.2z M300.4,784.7
	l34.4-40.3l-7.9-6.7l-14.1,16.5l-13.6-11.7l14.1-16.5l-7.9-6.7L271,759.6l7.9,6.7l14.4-16.8l13.6,11.7L292.5,778L300.4,784.7z
	 M261.6,726.1l-6.5-8.3c-4,1.8-8.2,1.7-11.4-2.4c-1.7-2.2-2.3-4.7-1.9-6.9c0.5-3,2.1-5,10.2-11.3c8-6.3,10.4-7.4,13.4-7.2
	c2.3,0.1,4.5,1.3,6.3,3.5c3.2,4.1,2.3,8.2-0.4,11.7l6.5,8.3c7.6-8.3,7.2-17.9,1.1-25.7c-3.6-4.6-8.2-7-13.4-7.7
	c-7.5-0.9-12.6,3.3-19.8,8.9c-7.2,5.6-12.5,9.6-13.4,17.1c-0.6,5.2,0.7,10.3,4.3,14.8C242.5,728.8,251.8,731.5,261.6,726.1z"/>
<path class="st1" d="M866.4,644.2c-51.8,152.9-196.4,263-366.8,263s-315-110.1-366.8-263h14.9c51.2,145,189.4,248.9,351.9,248.9
	s300.7-103.9,351.9-248.9H866.4z M499.6,132.8c170.4,0,315,110.1,366.8,263h-14.9c-51.2-145-189.4-248.9-351.9-248.9
	S198.9,250.8,147.7,395.8h-14.9C184.6,242.9,329.2,132.8,499.6,132.8z"/>
<g>
	<path class="st3" d="M513.3,122.9l0.4-5l12.5-12.4c1.2-1.2,1.8-2.2,1.9-3.6c0.2-2.3-1-3.9-3.4-4.1c-1.9-0.1-3.8,0.7-4,3.6l-5.6-0.4
		c0.4-5.6,4.8-8.6,10-8.2c5.4,0.4,9,4.1,8.6,9.6c-0.2,3-1.5,4.5-3.8,6.8l-9.3,9.3l11.8,0.9l-0.4,5L513.3,122.9z"/>
</g>
<g>
	<path class="st3" d="M545.4,125.7c-5-0.6-8.9-4.4-8.2-10.3l1.6-12.9c0.7-5.8,5.5-8.5,10.4-7.9c5,0.6,8.8,4.4,8.1,10.2l-1.6,12.9
		C555,123.6,550.3,126.3,545.4,125.7z M551.8,104.3c0.3-2.6-1-4.3-3.2-4.6s-3.9,1.1-4.3,3.7l-1.6,12.7c-0.3,2.6,1,4.3,3.2,4.6
		s3.9-1.1,4.2-3.7L551.8,104.3z"/>
</g>
<g>
	<path class="st3" d="M469.2,124.6c-4.5,0.3-10.2-1.6-10.9-10.7c-0.7-9.1,4.7-11.9,9.2-12.2c3.1-0.2,5.5,0.5,7.6,2.5l-3.5,4.1
		c-1.3-1.2-2.3-1.6-3.8-1.5c-1.3,0.1-2.3,0.7-3.1,1.7c-0.8,1.1-1.1,2.7-0.9,5s0.7,3.9,1.6,4.9c0.9,0.9,2,1.3,3.3,1.2
		c1.5-0.1,2.4-0.7,3.5-2l4.1,3.5C474.5,123.2,472.3,124.4,469.2,124.6z"/>
</g>
<g>
	<path class="st3" d="M484.4,113.9c0.1,2.9,1.9,5,5.1,4.9c2.5-0.1,3.7-0.8,5-2.3l3.5,3.2c-2.2,2.3-4.4,3.7-8.5,3.8
		c-5.3,0.1-10.5-2.1-10.7-11.2c-0.2-7.3,3.7-11.6,9.5-11.7c6.3-0.2,9.9,4.3,10.1,10.5l0.1,2.5L484.4,113.9z M492.2,107.4
		c-0.6-1.3-1.9-2.3-3.8-2.2c-1.9,0.1-3.1,1.1-3.7,2.4c-0.3,0.8-0.4,1.4-0.5,2.4l8.5-0.2C492.7,108.8,492.6,108.2,492.2,107.4z"/>
</g>
<g>
	<path class="st3" d="M568.7,129.4c-4.9-0.9-8.6-4.9-7.6-10.7l2.3-12.7c1-5.8,5.9-8.2,10.8-7.3c4.9,0.9,8.6,4.9,7.6,10.7l-2.3,12.7
		C578.5,127.8,573.6,130.2,568.7,129.4z M576.3,108.3c0.5-2.6-0.7-4.4-2.9-4.8c-2.2-0.4-4,0.9-4.4,3.5l-2.3,12.6
		c-0.5,2.5,0.8,4.4,3,4.7c2.2,0.4,3.9-0.9,4.4-3.4L576.3,108.3z"/>
</g>
<g>
	<path class="st3" d="M448.5,126.3l-1.7-13.5c-0.4-3-2.4-3.8-4.2-3.6s-3.6,1.5-3.2,4.5l1.7,13.5l-5.6,0.7l-2.8-22.3l5.4-0.7l0.3,2.1
		c1.3-1.7,3.2-2.8,5.3-3c2.2-0.3,4.1,0.2,5.5,1.3c2,1.6,2.8,3.6,3.1,6.1l1.8,14.3L448.5,126.3z"/>
</g>
<g>
	<path class="st3" d="M419.3,104.4l-0.8-4.5l5.7-1l0.8,4.5L419.3,104.4z M424,130.3l-4-22.1l5.5-1l4,22.1L424,130.3z"/>
</g>
<g>
	<path class="st3" d="M590.6,133.7l5.6-24.1l-7.3,3.9l1.4-5.9l7.3-3.9l5.5,1.3l-6.9,30L590.6,133.7z"/>
</g>
<g>
	<path class="st3" d="M407.6,134.1c-4.5,1-8.2,0.9-11.9-1.4l2.9-4.7c2.3,1.5,5,1.5,7.8,0.9c3.5-0.8,5-2.5,4.4-4.9
		c-0.2-1.1-0.7-1.9-1.5-2.3c-0.7-0.4-1.5-0.6-2.9-0.4l-3.7,0.3c-2.7,0.2-4.7-0.1-6.4-1.1c-1.8-1.1-2.9-2.9-3.5-5.4
		c-1.2-5.3,1.9-10,8.3-11.5c4.1-1,7.3-0.6,10.5,1.3l-2.9,4.5c-2.3-1.4-4.6-1.1-6.6-0.6c-3.1,0.7-4.2,2.8-3.8,4.9
		c0.2,0.8,0.6,1.5,1.4,1.9c0.7,0.4,1.8,0.7,3,0.5l3.7-0.3c2.8-0.3,4.7,0.1,6.3,1c1.9,1.1,3.2,3.2,3.8,5.8
		C418,128.2,413.9,132.6,407.6,134.1z"/>
</g>
<rect x="6.2" y="86.1" class="st4" width="986.8" height="827.2"/>
</svg>
