<?xml version="1.0" encoding="UTF-8"?><svg id="Layer_1" xmlns="http://www.w3.org/2000/svg" viewBox="0 0 1024 768"><defs><style>.cls-1{fill:#f9f9f9;}.cls-2{fill:#7f7f7f;}</style></defs><rect class="cls-1" width="1024" height="768"/><path class="cls-2" d="m691.79,110.28h-360.46c-14.48,0-26.21,13.44-26.21,30.01v307.63c0,16.57,11.73,30.01,26.21,30.01h360.46c14.48,0,26.21-13.44,26.21-30.01V140.29c0-16.57-11.73-30.01-26.21-30.01Zm0,30.01v218.28l-51.66-53.78c-7.77-8.08-19.71-7.76-27.13.74l-52.29,59.85-103.09-140.98c-7.79-10.66-22.06-10.76-29.98-.23l-96.31,128.14v-212.02h360.46Zm-111.42,78.78c0-22.79,16.14-41.27,36.05-41.27s36.04,18.47,36.04,41.27-16.14,41.27-36.04,41.27-36.05-18.47-36.05-41.27Z"/><path class="cls-2" d="m307.37,554.7c1.15,1.22,1.72,2.75,1.72,4.58v66.76c0,1.99-.67,3.65-2,4.98-1.34,1.34-3,2-4.98,2-1.07,0-2.12-.17-3.15-.52-1.03-.34-1.77-.82-2.23-1.43l-42.03-53.36v48.9c0,1.83-.59,3.36-1.77,4.58-1.18,1.22-2.73,1.83-4.64,1.83s-3.32-.61-4.47-1.83c-1.15-1.22-1.72-2.75-1.72-4.58v-66.76c0-1.98.67-3.64,2-4.98,1.33-1.33,3-2,4.98-2,1.15,0,2.27.23,3.38.69,1.11.46,1.93,1.07,2.46,1.83l41.68,53.13v-49.24c0-1.83.59-3.36,1.77-4.58,1.18-1.22,2.69-1.83,4.52-1.83s3.32.61,4.47,1.83Z"/><path class="cls-2" d="m394.97,613.73c-3.36,6.3-8,11.28-13.91,14.94-5.92,3.66-12.58,5.5-19.98,5.5s-14.07-1.83-19.98-5.5c-5.92-3.66-10.53-8.65-13.86-14.94-3.32-6.3-4.98-13.23-4.98-20.78s1.66-14.49,4.98-20.78c3.32-6.3,7.94-11.28,13.86-14.94,5.92-3.67,12.58-5.5,19.98-5.5s14.07,1.83,19.98,5.5c5.92,3.66,10.55,8.65,13.91,14.94,3.36,6.3,5.04,13.23,5.04,20.78s-1.68,14.49-5.04,20.78Zm-12.94-34.7c-2.06-4.16-4.92-7.46-8.59-9.91-3.66-2.44-7.79-3.67-12.37-3.67s-8.8,1.2-12.42,3.61c-3.63,2.41-6.45,5.71-8.47,9.91-2.02,4.2-3.03,8.86-3.03,13.97s1.01,9.77,3.03,13.97c2.02,4.2,4.85,7.5,8.47,9.91,3.62,2.4,7.77,3.61,12.42,3.61s8.7-1.22,12.37-3.66c3.66-2.44,6.53-5.74,8.59-9.91,2.06-4.16,3.09-8.8,3.09-13.91s-1.03-9.75-3.09-13.91Z"/><path class="cls-2" d="m457.38,631.02c-1.45,1.34-3.13,2-5.04,2-2.06,0-3.76-.67-5.1-2-1.34-1.33-2-3-2-4.98v-66.19c0-1.98.69-3.64,2.06-4.98,1.37-1.33,3.13-2,5.27-2,1.91,0,3.55.67,4.92,2,1.37,1.34,2.06,3,2.06,4.98v66.19c0,1.99-.73,3.65-2.18,4.98Z"/><path class="cls-2" d="m551.22,554.76c1.41,1.34,2.12,3,2.12,4.98v66.3c0,1.99-.65,3.65-1.95,4.98-1.3,1.34-3.02,2-5.15,2s-3.88-.65-5.21-1.95c-1.34-1.3-2-2.98-2-5.04v-46.15l-18.89,28.86c-.76.92-1.64,1.66-2.63,2.23-.99.57-2.02.82-3.09.75-.99.08-1.99-.17-2.98-.75-.99-.57-1.87-1.32-2.63-2.23l-18.89-29.89v47.18c0,2.06-.61,3.74-1.83,5.04-1.22,1.3-2.83,1.95-4.81,1.95s-3.48-.67-4.7-2c-1.22-1.33-1.83-3-1.83-4.98v-66.3c0-1.91.71-3.55,2.12-4.92,1.41-1.37,3.11-2.06,5.1-2.06,1.15,0,2.29.29,3.44.86,1.15.57,2.02,1.32,2.63,2.23l24.96,38.36,25.65-38.36c.61-.92,1.43-1.66,2.46-2.23,1.03-.57,2.08-.86,3.15-.86,1.91,0,3.57.67,4.98,2Z"/><path class="cls-2" d="m633.95,626.84c0,1.99-.65,3.61-1.95,4.87-1.3,1.26-2.79,1.89-4.47,1.89-1.37,0-2.62-.42-3.72-1.26-1.11-.84-1.97-1.98-2.58-3.43l-5.96-13.86h-34.12l-5.96,13.97c-.54,1.45-1.36,2.58-2.46,3.38-1.11.8-2.31,1.2-3.61,1.2-1.99,0-3.49-.54-4.52-1.6-1.03-1.07-1.55-2.52-1.55-4.35,0-.69.11-1.41.34-2.18l28.51-68.48c.61-1.53,1.53-2.71,2.75-3.55,1.22-.84,2.59-1.18,4.12-1.03,1.37,0,2.65.4,3.84,1.2,1.18.8,2.04,1.93,2.58,3.38l28.17,67.1c.38.99.57,1.91.57,2.75Zm-47.18-24.96h22.9l-11.57-26.8-11.34,26.8Z"/><path class="cls-2" d="m707.12,591.74c1.3,1.34,1.95,3,1.95,4.98v24.28c0,2.67-1.18,4.73-3.55,6.18-7.48,4.66-15.69,6.99-24.62,6.99-7.56,0-14.54-1.85-20.96-5.55-6.41-3.7-11.49-8.7-15.23-15-3.74-6.3-5.61-13.19-5.61-20.67s1.87-14.37,5.61-20.67c3.74-6.3,8.82-11.3,15.23-15,6.41-3.7,13.4-5.55,20.96-5.55s14.12,1.53,19.7,4.58c1.15.61,2,1.41,2.58,2.4.57.99.86,2.06.86,3.21,0,1.91-.63,3.57-1.89,4.98-1.26,1.41-2.81,2.12-4.64,2.12-1.14,0-2.4-.3-3.78-.92-4.12-1.75-8.4-2.63-12.83-2.63-4.89,0-9.39,1.24-13.51,3.72-4.12,2.48-7.39,5.82-9.79,10.02-2.41,4.2-3.61,8.78-3.61,13.74s1.2,9.54,3.61,13.74c2.4,4.2,5.67,7.54,9.79,10.02,4.12,2.48,8.63,3.72,13.51,3.72,2.14,0,4.43-.19,6.87-.57,2.44-.38,4.58-.88,6.41-1.49v-14.89h-10.76c-1.99,0-3.65-.65-4.98-1.95-1.34-1.3-2-2.94-2-4.92s.67-3.62,2-4.92c1.33-1.3,3-1.95,4.98-1.95h18.78c1.98,0,3.62.67,4.92,2Z"/><path class="cls-2" d="m773.14,621.86c1.33,1.34,2,2.88,2,4.64,0,1.91-.67,3.47-2,4.7-1.34,1.22-3,1.83-4.98,1.83h-38.36c-1.99,0-3.65-.67-4.98-2-1.34-1.33-2-3-2-4.98v-66.19c0-1.98.67-3.64,2-4.98,1.33-1.33,3-2,4.98-2h38.36c1.98,0,3.64.63,4.98,1.89,1.33,1.26,2,2.88,2,4.87s-.65,3.46-1.95,4.64c-1.3,1.18-2.98,1.78-5.04,1.78h-31.03v19.47h25.88c1.98,0,3.64.63,4.98,1.89,1.33,1.26,2,2.88,2,4.87s-.65,3.46-1.95,4.64c-1.3,1.18-2.98,1.78-5.04,1.78h-25.88v21.18h31.03c1.98,0,3.64.67,4.98,2Z"/></svg>